.
 
http://www.scenetime.com    -  Hottest private tracker on the net. !!!

New release on http://www.scenetime.com

        Seed back for speed


...................................NFO:.................................................








































          
          
              
              
                    
                    
                    
                    

Eaters.2011.DVDRiP.XviD.AC3-SiC

Poster:
[img]http://img819.imageshack.us/img819/322/rhrsiff.jpg[/img]

IMDB Link: 
http://www.imdb.com/title/tt1753753/

Description:
The world - devastated by the Great Epidemic - is governed by hordes of living dead. Three men - Igor and Alen, two hunters of dead and a scientist, Gyno - try to give an answer to what has happened to the human race. Alen and Igor leave for two days of hunting to find new "guinea-pigs" for Gyno and meet the most varied characters: a crazy painter, neo-Nazis and a mysterious girl, daughter of the feared Plague-Spreader, supposed craftsman of the epidemic.  

MediaInfo:
General
Complete name                    : Eaters.2011.DVDRiP.XviD.AC3-SiC.avi
Format                           : AVI
Format/Info                      : Audio Video Interleave
File size                        : 1.54 GiB
Duration                         : 1h 30mn
Overall bit rate                 : 2 426 Kbps

Video
ID                               : 0
Format                           : MPEG-4 Visual
Format profile                   : Advanced Simple@L5
Format settings, BVOP            : 1
Format settings, QPel            : No
Format settings, GMC             : No warppoints
Format settings, Matrix          : Default (H.263)
Codec ID                         : XVID
Codec ID/Hint                    : XviD
Duration                         : 1h 30mn
Bit rate                         : 1 970 Kbps
Width                            : 720 pixels
Height                           : 288 pixels
Display aspect ratio             : 2.500
Frame rate                       : 25.000 fps
Color space                      : YUV
Chroma subsampling               : 4:2:0
Bit depth                        : 8 bits
Scan type                        : Progressive
Compression mode                 : Lossy
Bits/(Pixel*Frame)               : 0.380
Stream size                      : 1.25 GiB (81%)
Writing library                  : XviD 1.2.1 (UTC 2008-12-04)

Audio
ID                               : 1
Format                           : AC-3
Format/Info                      : Audio Coding 3
Mode extension                   : CM (complete main)
Codec ID                         : 2000
Duration                         : 1h 30mn
Bit rate mode                    : Constant
Bit rate                         : 448 Kbps
Channel(s)                       : 6 channels
Channel positions                : Front: L C R, Side: L R, LFE
Sampling rate                    : 48.0 KHz
Bit depth                        : 16 bits
Compression mode                 : Lossy
Stream size                      : 291 MiB (18%)
Alignment                        : Aligned on interleaves
Interleave, duration             : 64 ms (1.60 video frames)
Interleave, preload duration     : 192 ms
Title                            : VTS_01_1 T81 3_2ch 448Kbps DELAY -49ms

Screenshots:
[img]http://img27.imageshack.us/img27/8045/vlcsnap2011091115h54m15.png[/img]
[img]http://img838.imageshack.us/img838/1138/vlcsnap2011091115h54m21.png[/img]
[img]http://img826.imageshack.us/img826/7752/vlcsnap2011091115h54m28.png[/img]
[img]http://img4.imageshack.us/img4/1818/vlcsnap2011091115h54m56.png[/img]
[img]http://img29.imageshack.us/img29/2031/vlcsnap2011091115h55m01.png[/img]


Note : Italian language with external English subtitles.  

Source: Our Own

Enjoy!

Respects to CaptainHomey, Cyanide, CM8, Rx, THC, ELEKTRI4KA, 
Killerhz, PA, YeFsTe, BoxSlots, MrRep and everyone in the struggle...